<svg width="151" height="27" viewBox="0 0 151 27" fill="none" xmlns="http://www.w3.org/2000/svg">
    <path
        d="M6.81316 2.42651C4.36471 2.42651 2.36133 4.4299 2.36133 6.87835V20.6559C2.36133 23.1043 4.36471 25.1077 6.81316 25.1077H20.5907C23.0391 25.1077 25.0425 23.1043 25.0425 20.6559V6.87835C25.0425 4.4299 23.0391 2.42651 20.5907 2.42651H6.81316ZM6.81316 4.48914H20.5907C21.9326 4.48914 22.9803 5.53648 22.9803 6.87835V20.6559C22.9803 21.9977 21.9326 23.0455 20.5907 23.0455H6.81316C5.47129 23.0455 4.42395 21.9977 4.42395 20.6559V6.87835C4.42395 5.53648 5.47129 4.48914 6.81316 4.48914ZM20.4304 6.67337C20.1956 6.67154 19.9671 6.74997 19.7829 6.89566C19.6767 6.97964 19.5881 7.08371 19.5221 7.20194C19.4561 7.32016 19.4141 7.45022 19.3984 7.58469C19.3827 7.71916 19.3936 7.8554 19.4306 7.98565C19.4675 8.11589 19.5298 8.23758 19.6137 8.34377C19.6977 8.44996 19.8018 8.53857 19.92 8.60454C20.0382 8.67051 20.1683 8.71255 20.3028 8.72825C20.4372 8.74396 20.5735 8.73303 20.7037 8.69607C20.834 8.65912 20.9557 8.59688 21.0618 8.5129C21.168 8.42892 21.2567 8.32485 21.3226 8.20663C21.3886 8.08841 21.4306 7.95835 21.4463 7.82388C21.462 7.68941 21.4511 7.55316 21.4142 7.42292C21.3772 7.29268 21.315 7.17099 21.231 7.0648C21.1353 6.94383 21.0137 6.84586 20.8752 6.77812C20.7366 6.71037 20.5846 6.67458 20.4304 6.67337ZM13.6502 7.5283C10.1596 7.5283 7.30808 10.3803 7.30808 13.8708C7.30808 17.3614 10.1596 20.2129 13.6502 20.2129C17.1407 20.2129 19.9923 17.3614 19.9923 13.8708C19.9923 10.3803 17.1407 7.5283 13.6502 7.5283ZM13.6502 9.58932C16.0264 9.58932 17.9301 11.4946 17.9301 13.8708C17.9301 16.2471 16.0264 18.1507 13.6502 18.1507C11.2739 18.1507 9.3703 16.2471 9.3703 13.8708C9.3703 11.4946 11.2739 9.58932 13.6502 9.58932Z"
        fill="#F47D31" />
    <g clip-path="url(#clip0_148_86)">
        <path
            d="M88.4721 5.58322C87.5014 6.01455 86.4589 6.30568 85.3629 6.43516C86.4804 5.76548 87.3389 4.70488 87.7438 3.4414C86.6973 4.06077 85.5393 4.51272 84.3064 4.75437C83.3184 3.70284 81.9114 3.04553 80.3535 3.04553C77.3638 3.04553 74.9416 5.46858 74.9416 8.45822C74.9416 8.88213 74.9886 9.29614 75.081 9.69201C70.5821 9.46603 66.5937 7.31102 63.9232 4.03603C63.4581 4.83601 63.1909 5.76548 63.1909 6.75763C63.1909 8.63636 64.1467 10.2924 65.5983 11.2639C64.7117 11.2351 63.8771 10.9926 63.1472 10.5868C63.1464 10.6091 63.1464 10.633 63.1464 10.6545C63.1464 13.2779 65.0119 15.4659 67.4885 15.9632C67.0349 16.0861 66.5566 16.1529 66.0626 16.1529C65.7129 16.1529 65.3748 16.1191 65.0449 16.0564C65.7327 18.2057 67.7327 19.771 70.1005 19.8155C68.2489 21.2671 65.915 22.1338 63.3789 22.1338C62.9418 22.1338 62.5105 22.1083 62.0874 22.058C64.4824 23.592 67.3277 24.4884 70.385 24.4884C80.3411 24.4884 85.7868 16.2403 85.7868 9.08666C85.7868 8.85244 85.7802 8.61821 85.7703 8.38564C86.8284 7.62277 87.7455 6.67021 88.4721 5.58322Z"
            fill="#F47D31" />
    </g>
    <g clip-path="url(#clip1_148_86)">
        <path
            d="M138.359 10.6537V15.7337H141.227C141.912 15.7337 142.318 15.1663 142.464 14.4966L143.031 11.8908C143.176 11.2211 142.479 10.6537 141.794 10.6537H138.359Z"
            fill="#F47D31" />
        <path
            d="M131.91 10.6537C131.225 10.6537 130.673 11.2054 130.673 11.8908V14.4966C130.673 15.182 131.225 15.7337 131.91 15.7337H134.349V10.6537H131.91Z"
            fill="#F47D31" />
        <path
            d="M133.766 5.23895V24.9136C133.766 25.599 134.317 26.1507 135.003 26.1507H137.609C138.294 26.1507 138.846 25.599 138.846 24.9136V8.97317C138.846 7.12103 139.263 6.47604 141.066 6.47604H141.594C142.28 6.47604 142.831 5.9243 142.831 5.23895V2.63309C142.831 1.94774 142.28 1.396 141.594 1.396H137.609C134.986 1.396 133.766 2.99704 133.766 5.23895Z"
            fill="#F47D31" />
    </g>
    <defs>
        <clipPath id="clip0_148_86">
            <rect width="26.3913" height="26.3913" fill="white" transform="translate(62.0864 0.571289)" />
        </clipPath>
        <clipPath id="clip1_148_86">
            <rect width="26.3913" height="26.3913" fill="white" transform="translate(123.666 0.571289)" />
        </clipPath>
    </defs>
</svg>